# xmcd
#
# Track frame offsets: 
#        150
#        17573
#        33931
#        48416
#
# Disc length: 851 seconds
#
# Revision: 0
# Processed by: cddbd v1.5.2PL0 Copyright (c) Steve Scherf et al.
# Submitted via: ExactAudioCopy v0.99pb4
#
DISCID=25035104
DTITLE=Laura Hocking and The Long Goodbye - Laura Hocking and The Long
DTITLE=Goodbye
DYEAR=2011
DGENRE=Folk Rock
TTITLE0=Tallented Tailor
TTITLE1=Strongmen and Acrobats
TTITLE2=All Fall In
TTITLE3=Two-Thirds Is A Dream
EXTD=
EXTT0=
EXTT1=
EXTT2=
EXTT3=
PLAYORDER=
